<svg xmlns="http://www.w3.org/2000/svg" xmlns:xlink="http://www.w3.org/1999/xlink" viewBox="0 0 512 512" width="512" height="512" style="width: 100%; height: 100%; transform: translate3d(0,0,0);" preserveAspectRatio="xMidYMid meet"><defs><clipPath id="__lottie_element_2"><rect width="512" height="512" x="0" y="0"></rect></clipPath></defs><g clip-path="url(#__lottie_element_2)"><g style="display: block;" transform="matrix(1,0,0,1,-914.8670043945312,256)" opacity="1"><g opacity="1" transform="matrix(1,0,0,1,0,0)"><path fill="rgb(0,0,0)" fill-opacity="1" d=" M1344.074951171875,-136.9029998779297 C1342.791015625,-138.49200439453125 1340.2650146484375,-138.08700561523438 1339.5589599609375,-136.1699981689453 C1339.5589599609375,-136.1699981689453 1329.3060302734375,-108.34300231933594 1329.3060302734375,-108.34300231933594 C1329.012939453125,-107.5469970703125 1329.126953125,-106.66200256347656 1329.6070556640625,-105.96199798583984 C1350.801025390625,-75.05400085449219 1363.2230224609375,-37.68000030517578 1363.2230224609375,2.5450000762939453 C1363.2230224609375,3.76200008392334 1363.2099609375,4.97599983215332 1363.18701171875,6.186999797821045 C1363.1700439453125,7.10099983215332 1363.623046875,7.956999778747559 1364.39404296875,8.449000358581543 C1368.5169677734375,11.083000183105469 1381.873046875,19.614999771118164 1388.3709716796875,23.76799964904785 C1390.0400390625,24.834999084472656 1392.22900390625,23.732999801635742 1392.39794921875,21.760000228881836 C1392.9420166015625,15.404999732971191 1393.2230224609375,8.996999740600586 1393.2230224609375,2.5450000762939453 C1393.2230224609375,-48.81700134277344 1375.9139404296875,-97.51100158691406 1344.074951171875,-136.9029998779297z"></path></g><g opacity="1" transform="matrix(1,0,0,1,0,0)"><path fill="rgb(0,0,0)" fill-opacity="1" d=" M1059.969970703125,-185.86000061035156 C1066.4949951171875,-181.70599365234375 1079.947021484375,-173.13299560546875 1084.083984375,-170.49600219726562 C1084.85302734375,-170.00599670410156 1085.8189697265625,-169.95599365234375 1086.6390380859375,-170.35699462890625 C1112.092041015625,-182.8070068359375 1140.675048828125,-189.81100463867188 1170.866943359375,-189.81100463867188 C1201.051025390625,-189.81100463867188 1229.626953125,-182.81100463867188 1255.074951171875,-170.36700439453125 C1255.89501953125,-169.96600341796875 1256.8599853515625,-170.01600646972656 1257.6290283203125,-170.50599670410156 C1261.7659912109375,-173.14300537109375 1275.218994140625,-181.71600341796875 1281.7449951171875,-185.87100219726562 C1283.4129638671875,-186.93299865722656 1283.343017578125,-189.37899780273438 1281.6300048828125,-190.36599731445312 C1248.2989501953125,-209.5760040283203 1210.3699951171875,-219.81100463867188 1170.866943359375,-219.81100463867188 C1131.3570556640625,-219.81100463867188 1093.4210205078125,-209.57200622558594 1060.0849609375,-190.35499572753906 C1058.3719482421875,-189.3679962158203 1058.302001953125,-186.9219970703125 1059.969970703125,-185.86000061035156z"></path></g><g opacity="1" transform="matrix(1,0,0,1,0,0)"><path fill="rgb(0,0,0)" fill-opacity="1" d=" M1368.156005859375,96.89900207519531 C1360.56103515625,96.91300201416016 1344.85205078125,96.9219970703125 1339.9320068359375,96.92400360107422 C1338.9959716796875,96.92400360107422 1338.1409912109375,97.4280014038086 1337.6739501953125,98.23899841308594 C1312.5589599609375,141.84800720214844 1270.844970703125,174.73500061035156 1221.2159423828125,188.20799255371094 C1220.39794921875,188.42999267578125 1219.7359619140625,189.0290069580078 1219.4429931640625,189.8249969482422 C1219.4429931640625,189.8249969482422 1209.2110595703125,217.593994140625 1209.2110595703125,217.593994140625 C1208.5050048828125,219.50999450683594 1210.1619873046875,221.45799255371094 1212.1689453125,221.08299255371094 C1255.83203125,212.927001953125 1296.0059814453125,191.86500549316406 1328.095947265625,159.77499389648438 C1345.625,142.24600219726562 1359.8609619140625,122.30400085449219 1370.5050048828125,100.69999694824219 C1371.3690185546875,98.947998046875 1370.1099853515625,96.8949966430664 1368.156005859375,96.89900207519531z"></path></g><g opacity="1" transform="matrix(1,0,0,1,0,0)"><path fill="rgb(0,0,0)" fill-opacity="1" d=" M1122.281982421875,189.822998046875 C1121.989013671875,189.02699279785156 1121.3270263671875,188.427001953125 1120.509033203125,188.2050018310547 C1070.884033203125,174.7310028076172 1029.1719970703125,141.8459930419922 1004.0590209960938,98.23899841308594 C1003.5919799804688,97.4280014038086 1002.7369995117188,96.92400360107422 1001.801025390625,96.92400360107422 C996.8809814453125,96.9219970703125 981.1719970703125,96.91300201416016 973.5770263671875,96.89900207519531 C971.6229858398438,96.8949966430664 970.364990234375,98.947998046875 971.22802734375,100.69999694824219 C981.8720092773438,122.30400085449219 996.1069946289062,142.24600219726562 1013.635986328125,159.77499389648438 C1045.7239990234375,191.86300659179688 1085.89501953125,212.9239959716797 1129.5550537109375,221.08099365234375 C1131.56201171875,221.45599365234375 1133.218994140625,219.50900268554688 1132.512939453125,217.59300231933594 C1132.512939453125,217.59300231933594 1122.281982421875,189.822998046875 1122.281982421875,189.822998046875z"></path></g><g opacity="1" transform="matrix(1,0,0,1,0,0)"><path fill="rgb(0,0,0)" fill-opacity="1" d=" M978.5449829101562,6.183000087738037 C978.52197265625,4.9730000495910645 978.510009765625,3.760999917984009 978.510009765625,2.5450000762939453 C978.510009765625,-37.68000030517578 990.9310302734375,-75.052001953125 1012.125,-105.95999908447266 C1012.60498046875,-106.66000366210938 1012.718994140625,-107.54499816894531 1012.426025390625,-108.34100341796875 C1012.426025390625,-108.34100341796875 1002.1740112304688,-136.1699981689453 1002.1740112304688,-136.1699981689453 C1001.468017578125,-138.08700561523438 998.9420166015625,-138.4929962158203 997.6580200195312,-136.9040069580078 C965.8200073242188,-97.51200103759766 948.510009765625,-48.81700134277344 948.510009765625,2.5450000762939453 C948.510009765625,8.996999740600586 948.791015625,15.406000137329102 949.3350219726562,21.760000228881836 C949.5040283203125,23.733999252319336 951.6929931640625,24.833999633789062 953.3619995117188,23.767000198364258 C959.8599853515625,19.613000869750977 973.2160034179688,11.079999923706055 977.3389892578125,8.446000099182129 C978.1090087890625,7.953999996185303 978.56201171875,7.0970001220703125 978.5449829101562,6.183000087738037z"></path></g><g opacity="1" transform="matrix(1,0,0,1,0,0)"><path fill="rgb(0,0,0)" fill-opacity="1" d=" M1385.5780029296875,57.03799819946289 C1385.5670166015625,56.89899826049805 1385.5589599609375,56.757999420166016 1385.5439453125,56.619998931884766 C1385.498046875,56.21099853515625 1385.43701171875,55.80500030517578 1385.3580322265625,55.40299987792969 C1385.3260498046875,55.23899841308594 1385.2850341796875,55.077999114990234 1385.248046875,54.915000915527344 C1385.177978515625,54.61199951171875 1385.10400390625,54.31100082397461 1385.0159912109375,54.01300048828125 C1384.9560546875,53.81100082397461 1384.885986328125,53.6150016784668 1384.8179931640625,53.41699981689453 C1384.740966796875,53.19300079345703 1384.6619873046875,52.97100067138672 1384.574951171875,52.750999450683594 C1384.4959716796875,52.551998138427734 1384.4139404296875,52.35599899291992 1384.3270263671875,52.1619987487793 C1384.22705078125,51.9379997253418 1384.1180419921875,51.71799850463867 1384.0069580078125,51.499000549316406 C1383.9200439453125,51.32699966430664 1383.8349609375,51.15299987792969 1383.740966796875,50.98500061035156 C1383.5770263671875,50.689998626708984 1383.3990478515625,50.40299987792969 1383.2149658203125,50.11899948120117 C1383.1610107421875,50.0359992980957 1383.114013671875,49.95000076293945 1383.0589599609375,49.86800003051758 C1382.81005859375,49.500999450683594 1382.5419921875,49.145999908447266 1382.260009765625,48.79999923706055 C1382.18798828125,48.71200180053711 1382.1090087890625,48.62900161743164 1382.0350341796875,48.54199981689453 C1381.8170166015625,48.28799819946289 1381.593994140625,48.03900146484375 1381.3590087890625,47.79800033569336 C1381.2550048828125,47.691001892089844 1381.14501953125,47.59000015258789 1381.0379638671875,47.486000061035156 C1380.823974609375,47.279998779296875 1380.60400390625,47.07899856567383 1380.3759765625,46.88399887084961 C1380.2469482421875,46.77399826049805 1380.1180419921875,46.66600036621094 1379.9849853515625,46.560001373291016 C1379.77001953125,46.388999938964844 1379.5479736328125,46.2239990234375 1379.322021484375,46.06399917602539 C1379.1700439453125,45.95600128173828 1379.02099609375,45.84700012207031 1378.864990234375,45.744998931884766 C1378.81298828125,45.71099853515625 1378.7650146484375,45.67300033569336 1378.7120361328125,45.638999938964844 C1378.7120361328125,45.638999938964844 1272.385009765625,-22.240999221801758 1272.385009765625,-22.240999221801758 C1272.385009765625,-22.240999221801758 1319.387939453125,-149.80799865722656 1319.387939453125,-149.80799865722656 C1319.9580078125,-151.35499572753906 1320.238037109375,-152.96200561523438 1320.2840576171875,-154.56700134277344 C1320.2850341796875,-154.59300231933594 1320.2869873046875,-154.6179962158203 1320.2879638671875,-154.6439971923828 C1320.2950439453125,-154.95899963378906 1320.29296875,-155.2729949951172 1320.281005859375,-155.58799743652344 C1320.27099609375,-155.89300537109375 1320.2469482421875,-156.197998046875 1320.218017578125,-156.50100708007812 C1320.197998046875,-156.69400024414062 1320.18505859375,-156.88699340820312 1320.157958984375,-157.07899475097656 C1320.0909423828125,-157.5800018310547 1319.9930419921875,-158.0749969482422 1319.8759765625,-158.56500244140625 C1319.862060546875,-158.6219940185547 1319.8489990234375,-158.67799377441406 1319.8349609375,-158.73399353027344 C1319.051025390625,-161.86399841308594 1317.27197265625,-164.73800659179688 1314.6199951171875,-166.84300231933594 C1309.573974609375,-170.8470001220703 1302.5360107421875,-171.18299865722656 1297.1300048828125,-167.67799377441406 C1297.1300048828125,-167.67799377441406 1170.85205078125,-87.052001953125 1170.85205078125,-87.052001953125 C1170.85205078125,-87.052001953125 1044.66796875,-167.61199951171875 1044.66796875,-167.61199951171875 C1044.66796875,-167.61199951171875 1044.530029296875,-167.7010040283203 1044.530029296875,-167.7010040283203 C1039.1219482421875,-171.18699645996094 1032.093017578125,-170.83599853515625 1027.06103515625,-166.8300018310547 C1022.5289916992188,-163.2220001220703 1020.5330200195312,-157.37399291992188 1021.7730102539062,-151.82699584960938 C1021.8090209960938,-151.65899658203125 1021.8469848632812,-151.49400329589844 1021.8889770507812,-151.32699584960938 C1021.9749755859375,-150.9949951171875 1022.0770263671875,-150.6649932861328 1022.18701171875,-150.33599853515625 C1022.2440185546875,-150.16099548339844 1022.281982421875,-149.98199462890625 1022.3460083007812,-149.80799865722656 C1022.3460083007812,-149.80799865722656 1069.3399658203125,-22.249000549316406 1069.3399658203125,-22.249000549316406 C1069.3399658203125,-22.249000549316406 963.02001953125,45.63999938964844 963.02001953125,45.63999938964844 C962.968994140625,45.67300033569336 962.9229736328125,45.709999084472656 962.8720092773438,45.74300003051758 C962.7119750976562,45.847999572753906 962.5579833984375,45.95899963378906 962.4030151367188,46.06999969482422 C962.1810302734375,46.22800064086914 961.9639892578125,46.38800048828125 961.7529907226562,46.555999755859375 C961.6170043945312,46.66400146484375 961.4840087890625,46.775001525878906 961.3519897460938,46.88800048828125 C961.1279907226562,47.07899856567383 960.9119873046875,47.277000427246094 960.7009887695312,47.47999954223633 C960.5900268554688,47.58700180053711 960.47900390625,47.69200134277344 960.3709716796875,47.801998138427734 C960.1400146484375,48.03799819946289 959.9210205078125,48.28200149536133 959.7080078125,48.53099822998047 C959.6290283203125,48.62300109863281 959.5460205078125,48.709999084472656 959.469970703125,48.80400085449219 C959.1900024414062,49.14799880981445 958.9229736328125,49.500999450683594 958.676025390625,49.86600112915039 C958.6160278320312,49.95500183105469 958.5640258789062,50.04999923706055 958.5050048828125,50.13999938964844 C958.3259887695312,50.41600036621094 958.1539916992188,50.69499969482422 957.9940185546875,50.981998443603516 C957.8980102539062,51.15399932861328 957.8109741210938,51.33100128173828 957.7219848632812,51.50699996948242 C957.6129760742188,51.72200012207031 957.5059814453125,51.9379997253418 957.4080200195312,52.15800094604492 C957.3189697265625,52.35499954223633 957.2369995117188,52.55400085449219 957.156982421875,52.75600051879883 C957.0709838867188,52.97200012207031 956.9929809570312,53.191001892089844 956.9169921875,53.4109992980957 C956.8480224609375,53.61199951171875 956.7780151367188,53.81100082397461 956.7169799804688,54.01599884033203 C956.6300048828125,54.30799865722656 956.5579833984375,54.604000091552734 956.489013671875,54.9010009765625 C956.4500122070312,55.07099914550781 956.406005859375,55.24100112915039 956.3729858398438,55.41299819946289 C956.2949829101562,55.8120002746582 956.2340087890625,56.2140007019043 956.1890258789062,56.61899948120117 C956.1740112304688,56.757999420166016 956.166015625,56.900001525878906 956.155029296875,57.040000915527344 C956.1270141601562,57.37699890136719 956.1090087890625,57.715999603271484 956.10400390625,58.055999755859375 C956.10302734375,58.13199996948242 956.0919799804688,58.20600128173828 956.0919799804688,58.28200149536133 C956.0919799804688,58.354000091552734 956.1019897460938,58.42399978637695 956.10302734375,58.49599838256836 C956.1079711914062,58.83599853515625 956.1270141601562,59.176998138427734 956.155029296875,59.51900100708008 C956.166015625,59.65700149536133 956.1729736328125,59.797000885009766 956.18798828125,59.933998107910156 C956.2319946289062,60.327999114990234 956.2919921875,60.72200012207031 956.3679809570312,61.1150016784668 C956.406982421875,61.316001892089844 956.4550170898438,61.513999938964844 956.5009765625,61.71200180053711 C956.56201171875,61.97100067138672 956.6190185546875,62.229000091552734 956.6939697265625,62.48699951171875 C956.7030029296875,62.516998291015625 956.7150268554688,62.54600143432617 956.7239990234375,62.57600021362305 C956.7869873046875,62.78900146484375 956.8629760742188,62.99599838256836 956.9359741210938,63.20500183105469 C957.0130004882812,63.426998138427734 957.0900268554688,63.64799880981445 957.177001953125,63.8650016784668 C957.2570190429688,64.06400299072266 957.343017578125,64.25900268554688 957.4310302734375,64.4530029296875 C957.5339965820312,64.68099975585938 957.6420288085938,64.90399932861328 957.7550048828125,65.125 C957.843017578125,65.2969970703125 957.9310302734375,65.46700286865234 958.0260009765625,65.63500213623047 C958.1680297851562,65.88700103759766 958.3200073242188,66.13200378417969 958.4749755859375,66.3740005493164 C958.5579833984375,66.50299835205078 958.635986328125,66.63300323486328 958.7219848632812,66.75900268554688 C959.22802734375,67.49700164794922 959.7949829101562,68.18399810791016 960.4180297851562,68.81400299072266 C960.510986328125,68.90799713134766 960.6090087890625,68.99700164794922 960.7050170898438,69.08899688720703 C960.9290161132812,69.30400085449219 961.156982421875,69.51300048828125 961.3939819335938,69.71399688720703 C961.52099609375,69.8219985961914 961.6500244140625,69.92500305175781 961.780029296875,70.02799987792969 C961.9990234375,70.20099639892578 962.2210083007812,70.36799621582031 962.448974609375,70.52899932861328 C962.593994140625,70.63099670410156 962.7379760742188,70.73300170898438 962.885986328125,70.83000183105469 C963.1209716796875,70.98400115966797 963.3619995117188,71.12699890136719 963.60498046875,71.26699829101562 C963.7509765625,71.35099792480469 963.8920288085938,71.44100189208984 964.041015625,71.5199966430664 C964.4149780273438,71.71900177001953 964.7960205078125,71.90499877929688 965.18701171875,72.0719985961914 C965.333984375,72.13500213623047 965.4869995117188,72.18499755859375 965.6370239257812,72.24400329589844 C965.9039916992188,72.3489990234375 966.1729736328125,72.45099639892578 966.447021484375,72.54000091552734 C966.6290283203125,72.5989990234375 966.8140258789062,72.6500015258789 966.9990234375,72.7020034790039 C967.2570190429688,72.7750015258789 967.5159912109375,72.84400177001953 967.7780151367188,72.90299987792969 C967.9619750976562,72.94499969482422 968.14599609375,72.98300170898438 968.3330078125,73.01799774169922 C968.625,73.072998046875 968.9190063476562,73.11499786376953 969.2150268554688,73.1520004272461 C969.375,73.1719970703125 969.5330200195312,73.1969985961914 969.6939697265625,73.21199798583984 C970.156005859375,73.25499725341797 970.6209716796875,73.28199768066406 971.0919799804688,73.28199768066406 C971.0919799804688,73.28199768066406 1104.5419921875,73.28199768066406 1104.5419921875,73.28199768066406 C1104.5419921875,73.28199768066406 1156.7860107421875,215.08900451660156 1156.7860107421875,215.08900451660156 C1158.958984375,220.98500061035156 1164.5780029296875,224.9029998779297 1170.862060546875,224.9029998779297 C1177.14599609375,224.9029998779297 1182.7640380859375,220.98599243164062 1184.93701171875,215.08999633789062 C1184.93701171875,215.08999633789062 1237.18798828125,73.28199768066406 1237.18798828125,73.28199768066406 C1237.18798828125,73.28199768066406 1370.6409912109375,73.28199768066406 1370.6409912109375,73.28199768066406 C1371.112060546875,73.28199768066406 1371.5770263671875,73.25499725341797 1372.0389404296875,73.21199798583984 C1372.199951171875,73.1969985961914 1372.3580322265625,73.1719970703125 1372.5179443359375,73.1520004272461 C1372.81396484375,73.11499786376953 1373.1090087890625,73.072998046875 1373.4010009765625,73.01799774169922 C1373.5880126953125,72.98300170898438 1373.77099609375,72.94499969482422 1373.9549560546875,72.90299987792969 C1374.217041015625,72.84400177001953 1374.47705078125,72.7750015258789 1374.7340087890625,72.7020034790039 C1374.9189453125,72.6500015258789 1375.10400390625,72.5989990234375 1375.2860107421875,72.54000091552734 C1375.5589599609375,72.45099639892578 1375.8270263671875,72.3489990234375 1376.093017578125,72.24500274658203 C1376.2440185546875,72.18599700927734 1376.39794921875,72.13500213623047 1376.5460205078125,72.07099914550781 C1376.93603515625,71.90399932861328 1377.3179931640625,71.71900177001953 1377.6910400390625,71.5199966430664 C1377.8409423828125,71.44000244140625 1377.9830322265625,71.35099792480469 1378.1300048828125,71.26599884033203 C1378.3719482421875,71.1259994506836 1378.613037109375,70.98400115966797 1378.845947265625,70.83100128173828 C1378.9949951171875,70.73300170898438 1379.1409912109375,70.63099670410156 1379.2860107421875,70.52799987792969 C1379.512939453125,70.36799621582031 1379.7340087890625,70.2020034790039 1379.9510498046875,70.02999877929688 C1380.08203125,69.9260025024414 1380.2130126953125,69.8219985961914 1380.3409423828125,69.71299743652344 C1380.574951171875,69.51399993896484 1380.801025390625,69.30599975585938 1381.02294921875,69.09300231933594 C1381.1209716796875,68.9990005493164 1381.2220458984375,68.90899658203125 1381.3170166015625,68.81300354003906 C1381.93798828125,68.18399810791016 1382.5050048828125,67.49800109863281 1383.010009765625,66.76200103759766 C1383.0989990234375,66.63300323486328 1383.178955078125,66.49700164794922 1383.2640380859375,66.36499786376953 C1383.416015625,66.12699890136719 1383.5660400390625,65.88700103759766 1383.7049560546875,65.63899993896484 C1383.801025390625,65.46800231933594 1383.8909912109375,65.29399871826172 1383.98095703125,65.11900329589844 C1384.092041015625,64.9020004272461 1384.198974609375,64.68199920654297 1384.300048828125,64.45800018310547 C1384.3900146484375,64.26000213623047 1384.47705078125,64.06199645996094 1384.5579833984375,63.86000061035156 C1384.6429443359375,63.64799880981445 1384.718017578125,63.43199920654297 1384.7939453125,63.21500015258789 C1384.8680419921875,63.00199890136719 1384.9449462890625,62.790000915527344 1385.010009765625,62.571998596191406 C1385.01904296875,62.542999267578125 1385.030029296875,62.51499938964844 1385.0389404296875,62.486000061035156 C1385.112060546875,62.23699951171875 1385.166015625,61.987998962402344 1385.2249755859375,61.737998962402344 C1385.2750244140625,61.5260009765625 1385.3270263671875,61.314998626708984 1385.3680419921875,61.0989990234375 C1385.4420166015625,60.71099853515625 1385.501953125,60.323001861572266 1385.5450439453125,59.935001373291016 C1385.56005859375,59.797000885009766 1385.5679931640625,59.65700149536133 1385.5789794921875,59.516998291015625 C1385.6070556640625,59.17599868774414 1385.625,58.83599853515625 1385.6300048828125,58.49599838256836 C1385.6309814453125,58.42399978637695 1385.6409912109375,58.354000091552734 1385.6409912109375,58.28200149536133 C1385.6409912109375,58.20600128173828 1385.6309814453125,58.13199996948242 1385.6300048828125,58.055999755859375 C1385.625,57.71500015258789 1385.60595703125,57.375999450683594 1385.5780029296875,57.03799819946289z M1022.4550170898438,43.28200149536133 C1022.4550170898438,43.28200149536133 1079.95703125,6.565000057220459 1079.95703125,6.565000057220459 C1079.95703125,6.565000057220459 1093.488037109375,43.28200149536133 1093.488037109375,43.28200149536133 C1093.488037109375,43.28200149536133 1022.4550170898438,43.28200149536133 1022.4550170898438,43.28200149536133z M1095.240966796875,-38.784000396728516 C1095.240966796875,-38.784000396728516 1065.876953125,-118.47899627685547 1065.876953125,-118.47899627685547 C1065.876953125,-118.47899627685547 1069.41796875,-116.21900177001953 1069.41796875,-116.21900177001953 C1069.41796875,-116.21900177001953 1142.97705078125,-69.25700378417969 1142.97705078125,-69.25700378417969 C1142.97705078125,-69.25700378417969 1095.240966796875,-38.784000396728516 1095.240966796875,-38.784000396728516z M1170.843994140625,166.4080047607422 C1170.843994140625,166.4080047607422 1136.531982421875,73.28199768066406 1136.531982421875,73.28199768066406 C1136.531982421875,73.28199768066406 1205.156005859375,73.28199768066406 1205.156005859375,73.28199768066406 C1205.156005859375,73.28199768066406 1170.843994140625,166.4080047607422 1170.843994140625,166.4080047607422z M1216.2130126953125,43.28200149536133 C1216.2130126953125,43.28200149536133 1125.47802734375,43.28200149536133 1125.47802734375,43.28200149536133 C1125.47802734375,43.28200149536133 1105.8580322265625,-9.970000267028809 1105.8580322265625,-9.970000267028809 C1105.8580322265625,-9.970000267028809 1170.85400390625,-51.4640007019043 1170.85400390625,-51.4640007019043 C1170.85400390625,-51.4640007019043 1235.8389892578125,-9.979000091552734 1235.8389892578125,-9.979000091552734 C1235.8389892578125,-9.979000091552734 1216.2130126953125,43.28200149536133 1216.2130126953125,43.28200149536133z M1198.72900390625,-69.25700378417969 C1198.72900390625,-69.25700378417969 1268.47900390625,-113.79000091552734 1268.47900390625,-113.79000091552734 C1268.47900390625,-113.79000091552734 1275.8170166015625,-118.4749984741211 1275.8170166015625,-118.4749984741211 C1275.8170166015625,-118.4749984741211 1246.4549560546875,-38.79199981689453 1246.4549560546875,-38.79199981689453 C1246.4549560546875,-38.79199981689453 1198.72900390625,-69.25700378417969 1198.72900390625,-69.25700378417969z M1248.241943359375,43.28200149536133 C1248.241943359375,43.28200149536133 1261.7679443359375,6.572999954223633 1261.7679443359375,6.572999954223633 C1261.7679443359375,6.572999954223633 1319.26904296875,43.28200149536133 1319.26904296875,43.28200149536133 C1319.26904296875,43.28200149536133 1248.241943359375,43.28200149536133 1248.241943359375,43.28200149536133z"></path></g></g></g></svg>